<?xml version="1.0" encoding="UTF-8"?><svg xmlns="http://www.w3.org/2000/svg" width="1800" height="900" viewBox="0 0 1800 900" role="img"><rect width="1800" height="900" fill="#f4ead8"/><g transform="translate(60 70) scale(.92)"><rect width="560" height="760" rx="4" fill="#fffaf1"/><rect width="560" height="18" fill="#c75a44"/><text x="56" y="92" font-family="Arial,sans-serif" font-size="26" letter-spacing="5" fill="#5b2f23">MEASURELOOM</text><text x="56" y="132" font-family="Arial,sans-serif" font-size="15" letter-spacing="3" fill="#241712">A PANTRYFORM PILOT BRAND</text><path d="M56 185H504" stroke="#5b2f23" stroke-width="3"/><text x="56" y="275" font-family="Georgia,serif" font-size="68" fill="#241712">Baking cocoa</text><text x="56" y="342" font-family="Georgia,serif" font-size="68" fill="#241712">powder</text><text x="56" y="392" font-family="Arial,sans-serif" font-size="20" letter-spacing="4" fill="#5b2f23">FORM · POWDER</text><rect x="78" y="460" width="12" height="48" fill="#d8892d"/><rect x="106" y="460" width="12" height="68" fill="#d8892d"/><rect x="134" y="460" width="12" height="88" fill="#d8892d"/><circle cx="453" cy="505" r="62" fill="#5b2f23"/><text x="453" y="516" text-anchor="middle" font-family="Arial,sans-serif" font-size="23" font-weight="700" fill="#f4ead8">WEIGHT</text><path d="M56 616H504" stroke="#5b2f23"/><text x="56" y="651" font-family="Arial,sans-serif" font-size="18" fill="#241712">SKU ML-BCP-XXXX</text><text x="56" y="688" font-family="Arial,sans-serif" font-size="17" fill="#241712">Ingredients · Allergens · Storage</text><text x="56" y="716" font-family="Arial,sans-serif" font-size="17" fill="#241712">Information not provided</text><text x="56" y="744" font-family="Arial,sans-serif" font-size="14" letter-spacing="2" fill="#c75a44">PORTFOLIO PROTOTYPE · NOT FOR SALE</text></g><g transform="translate(700 70)"><rect width="500" height="760" fill="#fffaf1"/><text x="44" y="70" font-family="Arial" font-size="24" fill="#241712">SIDE PANEL</text><text x="44" y="130" font-family="Arial" font-size="18" fill="#241712">Product · Baking cocoa powder</text><text x="44" y="170" font-family="Arial" font-size="18" fill="#241712">Form · Powder</text><text x="44" y="230" font-family="Arial" font-size="18" fill="#241712">Ingredients</text><text x="44" y="262" font-family="Arial" font-size="18" fill="#c75a44">Information not provided</text><text x="44" y="322" font-family="Arial" font-size="18" fill="#241712">Allergens</text><text x="44" y="354" font-family="Arial" font-size="18" fill="#c75a44">Information not provided</text><text x="44" y="414" font-family="Arial" font-size="18" fill="#241712">Storage</text><text x="44" y="446" font-family="Arial" font-size="18" fill="#c75a44">Information not provided</text><text x="44" y="700" font-family="Arial" font-size="15" fill="#5b2f23">STRUCTURAL PLACEHOLDER · NO REGULATORY DATA</text></g><g transform="translate(1240 70)"><rect width="500" height="760" fill="#fffaf1"/><text x="44" y="70" font-family="Arial" font-size="24" fill="#241712">STRUCTURAL BACK</text><rect x="44" y="112" width="412" height="210" fill="none" stroke="#5b2f23" stroke-dasharray="12 10"/><text x="250" y="205" text-anchor="middle" font-family="Arial" font-size="17" fill="#5b2f23">APPROVED INFORMATION</text><text x="250" y="235" text-anchor="middle" font-family="Arial" font-size="17" fill="#5b2f23">PLACEHOLDER</text><text x="44" y="380" font-family="Arial" font-size="16" fill="#241712">No FSSAI · barcode · MRP · batch · dates</text><text x="44" y="700" font-family="Arial" font-size="15" fill="#c75a44">PORTFOLIO PROTOTYPE · NOT FOR SALE</text></g></svg>