<?xml version="1.0" encoding="UTF-8"?><svg xmlns="http://www.w3.org/2000/svg" width="2400" height="1600" viewBox="0 0 2400 1600" role="img"><defs><filter id="shadow" x="-30%" y="-30%" width="160%" height="180%"><feDropShadow dx="0" dy="30" stdDeviation="24" flood-color="#241712" flood-opacity=".22"/></filter><linearGradient id="pouch" x1="0" x2="1"><stop stop-color="#eee1cb"/><stop offset=".52" stop-color="#fffaf1"/><stop offset="1" stop-color="#d9c7aa"/></linearGradient><pattern id="grain" width="20" height="20" patternUnits="userSpaceOnUse"><path d="M0 20L20 0M-5 5L5-5M15 25L25 15" stroke="#5b2f23" stroke-opacity=".035"/></pattern></defs><rect width="2400" height="1600" fill="#f4ead8"/><text x="120" y="150" font-family="Georgia,serif" font-size="82" fill="#241712">One ingredient. Three measured packs.</text><text x="124" y="215" font-family="Arial" font-size="26" letter-spacing="4" fill="#5b2f23">250 g · 500 g · 1 kg</text><g filter="url(#shadow)"><path d="M202.9 670H607.1L640 722V1268L597.7 1320H212.3L170 1268V722Z" fill="url(#pouch)" stroke="#b8a387" stroke-width="4"/><g transform="translate(240.5 787) scale(0.5875 0.5644736842105263)"><rect width="560" height="760" rx="4" fill="#fffaf1"/><rect width="560" height="18" fill="#c75a44"/><text x="56" y="92" font-family="Arial,sans-serif" font-size="26" letter-spacing="5" fill="#5b2f23">MEASURELOOM</text><text x="56" y="132" font-family="Arial,sans-serif" font-size="15" letter-spacing="3" fill="#241712">A PANTRYFORM PILOT BRAND</text><path d="M56 185H504" stroke="#5b2f23" stroke-width="3"/><text x="56" y="275" font-family="Georgia,serif" font-size="68" fill="#241712">Baking cocoa</text><text x="56" y="342" font-family="Georgia,serif" font-size="68" fill="#241712">powder</text><text x="56" y="392" font-family="Arial,sans-serif" font-size="20" letter-spacing="4" fill="#5b2f23">FORM · POWDER</text><rect x="78" y="460" width="12" height="48" fill="#d8892d"/><circle cx="453" cy="505" r="62" fill="#5b2f23"/><text x="453" y="516" text-anchor="middle" font-family="Arial,sans-serif" font-size="23" font-weight="700" fill="#f4ead8">250 g</text><path d="M56 616H504" stroke="#5b2f23"/><text x="56" y="651" font-family="Arial,sans-serif" font-size="18" fill="#241712">SKU ML-BCP-250</text><text x="56" y="688" font-family="Arial,sans-serif" font-size="17" fill="#241712">Ingredients · Allergens · Storage</text><text x="56" y="716" font-family="Arial,sans-serif" font-size="17" fill="#241712">Information not provided</text><text x="56" y="744" font-family="Arial,sans-serif" font-size="14" letter-spacing="2" fill="#c75a44">PORTFOLIO PROTOTYPE · NOT FOR SALE</text></g></g><g filter="url(#shadow)"><path d="M959.2 500H1440.8000000000002L1480 565.6V1254.4L1429.6 1320H970.4L920 1254.4V565.6Z" fill="url(#pouch)" stroke="#b8a387" stroke-width="4"/><g transform="translate(1004 647.6) scale(0.7 0.7121052631578948)"><rect width="560" height="760" rx="4" fill="#fffaf1"/><rect width="560" height="18" fill="#c75a44"/><text x="56" y="92" font-family="Arial,sans-serif" font-size="26" letter-spacing="5" fill="#5b2f23">MEASURELOOM</text><text x="56" y="132" font-family="Arial,sans-serif" font-size="15" letter-spacing="3" fill="#241712">A PANTRYFORM PILOT BRAND</text><path d="M56 185H504" stroke="#5b2f23" stroke-width="3"/><text x="56" y="275" font-family="Georgia,serif" font-size="68" fill="#241712">Baking cocoa</text><text x="56" y="342" font-family="Georgia,serif" font-size="68" fill="#241712">powder</text><text x="56" y="392" font-family="Arial,sans-serif" font-size="20" letter-spacing="4" fill="#5b2f23">FORM · POWDER</text><rect x="78" y="460" width="12" height="48" fill="#d8892d"/><rect x="106" y="460" width="12" height="68" fill="#d8892d"/><circle cx="453" cy="505" r="62" fill="#5b2f23"/><text x="453" y="516" text-anchor="middle" font-family="Arial,sans-serif" font-size="23" font-weight="700" fill="#f4ead8">500 g</text><path d="M56 616H504" stroke="#5b2f23"/><text x="56" y="651" font-family="Arial,sans-serif" font-size="18" fill="#241712">SKU ML-BCP-500</text><text x="56" y="688" font-family="Arial,sans-serif" font-size="17" fill="#241712">Ingredients · Allergens · Storage</text><text x="56" y="716" font-family="Arial,sans-serif" font-size="17" fill="#241712">Information not provided</text><text x="56" y="744" font-family="Arial,sans-serif" font-size="14" letter-spacing="2" fill="#c75a44">PORTFOLIO PROTOTYPE · NOT FOR SALE</text></g></g><g filter="url(#shadow)"><path d="M1616.2 300H2183.8L2230 381.6V1238.4L2170.6 1320H1629.4L1570 1238.4V381.6Z" fill="url(#pouch)" stroke="#b8a387" stroke-width="4"/><g transform="translate(1669 483.6) scale(0.8249999999999998 0.8857894736842106)"><rect width="560" height="760" rx="4" fill="#fffaf1"/><rect width="560" height="18" fill="#c75a44"/><text x="56" y="92" font-family="Arial,sans-serif" font-size="26" letter-spacing="5" fill="#5b2f23">MEASURELOOM</text><text x="56" y="132" font-family="Arial,sans-serif" font-size="15" letter-spacing="3" fill="#241712">A PANTRYFORM PILOT BRAND</text><path d="M56 185H504" stroke="#5b2f23" stroke-width="3"/><text x="56" y="275" font-family="Georgia,serif" font-size="68" fill="#241712">Baking cocoa</text><text x="56" y="342" font-family="Georgia,serif" font-size="68" fill="#241712">powder</text><text x="56" y="392" font-family="Arial,sans-serif" font-size="20" letter-spacing="4" fill="#5b2f23">FORM · POWDER</text><rect x="78" y="460" width="12" height="48" fill="#d8892d"/><rect x="106" y="460" width="12" height="68" fill="#d8892d"/><rect x="134" y="460" width="12" height="88" fill="#d8892d"/><rect x="162" y="460" width="12" height="108" fill="#d8892d"/><circle cx="453" cy="505" r="62" fill="#5b2f23"/><text x="453" y="516" text-anchor="middle" font-family="Arial,sans-serif" font-size="23" font-weight="700" fill="#f4ead8">1 kg</text><path d="M56 616H504" stroke="#5b2f23"/><text x="56" y="651" font-family="Arial,sans-serif" font-size="18" fill="#241712">SKU ML-BCP-1000</text><text x="56" y="688" font-family="Arial,sans-serif" font-size="17" fill="#241712">Ingredients · Allergens · Storage</text><text x="56" y="716" font-family="Arial,sans-serif" font-size="17" fill="#241712">Information not provided</text><text x="56" y="744" font-family="Arial,sans-serif" font-size="14" letter-spacing="2" fill="#c75a44">PORTFOLIO PROTOTYPE · NOT FOR SALE</text></g></g><path d="M120 1425H2280" stroke="#5b2f23"/><text x="1200" y="1500" text-anchor="middle" font-family="Arial" font-size="24" letter-spacing="5" fill="#5b2f23">APPARENT SCALE IS PROPORTIONAL TO PACK WEIGHT</text></svg>