<?xml version="1.0" encoding="UTF-8"?><svg xmlns="http://www.w3.org/2000/svg" width="1920" height="1920" viewBox="0 0 1920 1920"><defs><filter id="s"><feDropShadow dx="0" dy="22" stdDeviation="18" flood-color="#241712" flood-opacity=".2"/></filter><pattern id="g" width="24" height="24" patternUnits="userSpaceOnUse"><circle cx="3" cy="3" r="1.5" fill="#241712" opacity=".08"/></pattern></defs><rect width="1920" height="1920" fill="#f2e7d4"/><rect width="1920" height="1920" fill="url(#g)"/><g filter="url(#s)" transform="translate(0 0) scale(1)"><path d="M570 260H1350L1450 390V1370L1320 1470H600L470 1370V390Z" fill="#fffaf1" stroke="#8c775f" stroke-width="9"/><path d="M550 1220H1370V1380H550Z" fill="#ead9bd"/><path d="M650 1190Q960 1030 1270 1190V1280H650Z" fill="#f8f4ec"/><circle cx="650" cy="920" r="7" fill="#c9bca8" opacity=".42"/><circle cx="697" cy="962" r="7" fill="#c9bca8" opacity=".42"/><circle cx="744" cy="1004" r="7" fill="#c9bca8" opacity=".42"/><circle cx="791" cy="1046" r="7" fill="#c9bca8" opacity=".42"/><circle cx="838" cy="920" r="7" fill="#c9bca8" opacity=".42"/><circle cx="885" cy="962" r="7" fill="#c9bca8" opacity=".42"/><circle cx="932" cy="1004" r="7" fill="#c9bca8" opacity=".42"/><circle cx="979" cy="1046" r="7" fill="#c9bca8" opacity=".42"/><circle cx="1026" cy="920" r="7" fill="#c9bca8" opacity=".42"/><circle cx="1073" cy="962" r="7" fill="#c9bca8" opacity=".42"/><circle cx="1120" cy="1004" r="7" fill="#c9bca8" opacity=".42"/><circle cx="1167" cy="1046" r="7" fill="#c9bca8" opacity=".42"/><circle cx="1214" cy="920" r="7" fill="#c9bca8" opacity=".42"/><circle cx="1261" cy="962" r="7" fill="#c9bca8" opacity=".42"/><ellipse cx="960" cy="1040" rx="250" ry="64" fill="none" stroke="#8d8375" stroke-width="16"/><path d="M710 1040H560" stroke="#8d8375" stroke-width="24" stroke-linecap="round"/><g><rect x="650" y="560" width="620" height="420" rx="12" fill="#d8cdb7"/><path d="M682 642H1238M682 898H1238" stroke="#fffaf1" stroke-width="4" opacity=".75"/><text x="688" y="618" font-family="Arial,sans-serif" font-size="22" font-weight="700" letter-spacing="5" fill="#fffaf1">FIELDNOTE</text><text x="688" y="708" font-family="Georgia,serif" font-size="48" fill="#fffaf1">Icing sugar</text><text x="688" y="765" font-family="Arial,sans-serif" font-size="23" letter-spacing="3" fill="#fffaf1">DRY PANTRY</text><g stroke="#fffaf1" stroke-width="5"><path d="M690 805v46"/><path d="M745 805v28"/><path d="M800 805v46"/><path d="M855 805v28"/><path d="M910 805v46"/></g><text x="688" y="942" font-family="Arial,sans-serif" font-size="24" font-weight="700" fill="#fffaf1">500 g · FN-ICS-500</text><text x="1232" y="942" text-anchor="end" font-family="Arial,sans-serif" font-size="15" fill="#fffaf1">PORTFOLIO DEMO</text></g></g><text x="130" y="150" font-family="Arial,sans-serif" font-size="25" letter-spacing="6" fill="#241712">PANTRYFORM · MEASUREFIELD OBJECT STUDY</text><text x="130" y="1710" font-family="Georgia,serif" font-size="76" fill="#241712">Icing sugar · 500 g</text><text x="135" y="1782" font-family="Arial,sans-serif" font-size="29" letter-spacing="4" fill="#241712">500 g · FN-ICS-500</text><text x="135" y="1842" font-family="Arial,sans-serif" font-size="20" letter-spacing="3" fill="#8f493a">PORTFOLIO DEMO · NOT FOR SALE</text></svg>