<?xml version="1.0" encoding="UTF-8"?><svg xmlns="http://www.w3.org/2000/svg" width="1920" height="1920" viewBox="0 0 1920 1920"><defs><filter id="s"><feDropShadow dx="0" dy="22" stdDeviation="18" flood-color="#241712" flood-opacity=".2"/></filter><pattern id="g" width="24" height="24" patternUnits="userSpaceOnUse"><circle cx="3" cy="3" r="1.5" fill="#241712" opacity=".08"/></pattern></defs><rect width="1920" height="1920" fill="#f2e7d4"/><rect width="1920" height="1920" fill="url(#g)"/><g filter="url(#s)" transform="translate(0 0) scale(1)"><path d="M790 300H1130V430H790Z" fill="#241712"/><path d="M720 430H1200L1280 1320Q960 1420 640 1320Z" fill="#e9dfcb" stroke="#8c775f" stroke-width="9"/><path d="M700 1180Q960 1000 1220 1180V1320H700Z" fill="#cf4038" opacity=".8"/><g><rect x="690" y="590" width="540" height="420" rx="12" fill="#cf4038"/><path d="M722 672H1198M722 928H1198" stroke="#fffaf1" stroke-width="4" opacity=".75"/><text x="728" y="648" font-family="Arial,sans-serif" font-size="22" font-weight="700" letter-spacing="5" fill="#fffaf1">TINTFOLD</text><text x="728" y="738" font-family="Georgia,serif" font-size="48" fill="#fffaf1">Crimson gel colour</text><text x="728" y="795" font-family="Arial,sans-serif" font-size="23" letter-spacing="3" fill="#fffaf1">LIQUID</text><g stroke="#fffaf1" stroke-width="5"><path d="M730 835v46"/><path d="M785 835v28"/><path d="M840 835v46"/><path d="M895 835v28"/><path d="M950 835v46"/></g><text x="728" y="972" font-family="Arial,sans-serif" font-size="24" font-weight="700" fill="#fffaf1">20 g · TF-CRG-020</text><text x="1192" y="972" text-anchor="end" font-family="Arial,sans-serif" font-size="15" fill="#fffaf1">PORTFOLIO DEMO</text></g></g><text x="130" y="150" font-family="Arial,sans-serif" font-size="25" letter-spacing="6" fill="#241712">PANTRYFORM · MEASUREFIELD OBJECT STUDY</text><text x="130" y="1710" font-family="Georgia,serif" font-size="76" fill="#241712">Crimson gel colour</text><text x="135" y="1782" font-family="Arial,sans-serif" font-size="29" letter-spacing="4" fill="#241712">20 g · TF-CRG-020</text><text x="135" y="1842" font-family="Arial,sans-serif" font-size="20" letter-spacing="3" fill="#8f493a">PORTFOLIO DEMO · NOT FOR SALE</text></svg>