<?xml version="1.0" encoding="UTF-8"?><svg xmlns="http://www.w3.org/2000/svg" width="1920" height="1920" viewBox="0 0 1920 1920"><defs><filter id="s"><feDropShadow dx="0" dy="22" stdDeviation="18" flood-color="#241712" flood-opacity=".2"/></filter><pattern id="g" width="24" height="24" patternUnits="userSpaceOnUse"><circle cx="3" cy="3" r="1.5" fill="#241712" opacity=".08"/></pattern></defs><rect width="1920" height="1920" fill="#f2e7d4"/><rect width="1920" height="1920" fill="url(#g)"/><g filter="url(#s)"><rect x="500" y="450" width="920" height="900" fill="#fffaf1" stroke="#241712" stroke-width="12"/><path d="M630 690l130 470H610z" fill="none" stroke="#738187" stroke-width="13"/><path d="M820 690l130 470H800z" fill="none" stroke="#738187" stroke-width="13"/><path d="M1010 690l130 470H990z" fill="none" stroke="#738187" stroke-width="13"/><path d="M1200 690l130 470H1180z" fill="none" stroke="#738187" stroke-width="13"/><g><rect x="610" y="470" width="700" height="190" rx="12" fill="#d3a45f"/><path d="M642 552H1278M642 578H1278" stroke="#fffaf1" stroke-width="4" opacity=".75"/><text x="648" y="528" font-family="Arial,sans-serif" font-size="22" font-weight="700" letter-spacing="5" fill="#fffaf1">DETAILBENCH</text><text x="648" y="618" font-family="Georgia,serif" font-size="48" fill="#fffaf1">Disposable piping bags</text><text x="648" y="675" font-family="Arial,sans-serif" font-size="23" letter-spacing="3" fill="#fffaf1">PACK</text><g stroke="#fffaf1" stroke-width="5"><path d="M650 715v46"/><path d="M705 715v28"/><path d="M760 715v46"/><path d="M815 715v28"/><path d="M870 715v46"/></g><text x="648" y="622" font-family="Arial,sans-serif" font-size="24" font-weight="700" fill="#fffaf1">Pack of 20 · DB-PBG-020</text><text x="1272" y="622" text-anchor="end" font-family="Arial,sans-serif" font-size="15" fill="#fffaf1">PORTFOLIO DEMO</text></g></g><text x="130" y="150" font-family="Arial,sans-serif" font-size="25" letter-spacing="6" fill="#241712">PANTRYFORM · MEASUREFIELD OBJECT STUDY</text><text x="130" y="1710" font-family="Georgia,serif" font-size="76" fill="#241712">Disposable piping bags · Pack of 20</text><text x="135" y="1782" font-family="Arial,sans-serif" font-size="29" letter-spacing="4" fill="#241712">Pack of 20 · DB-PBG-020</text><text x="135" y="1842" font-family="Arial,sans-serif" font-size="20" letter-spacing="3" fill="#8f493a">PORTFOLIO DEMO · NOT FOR SALE</text></svg>